<?xml version="1.0" encoding="iso-8859-1"?>
<!-- Uploaded to: SVG Repo, www.svgrepo.com, Generator: SVG Repo Mixer Tools -->
<svg version="1.1" id="Layer_1" xmlns="http://www.w3.org/2000/svg" xmlns:xlink="http://www.w3.org/1999/xlink" 
	 viewBox="0 0 512 512" xml:space="preserve">
<polyline style="fill:#E35F46;" points="452.988,293.187 452.988,238.243 362.535,166.577 256,137.363 149.487,166.571 
	59.013,238.598 59.013,473.577 256,473.577 452.988,473.577 452.988,322.29 "/>
<polygon style="fill:#D8422E;" points="87.942,259.511 87.942,217.749 178.415,145.721 274.286,119.431 263.643,116.512 
	157.129,145.721 66.656,217.749 66.656,259.511 66.656,452.727 66.656,494.488 87.942,494.488 87.942,452.727 "/>
<path style="fill:#FFB92E;" d="M131.94,139.207c1.713-1.364,3.683-2.364,5.795-2.944l8.152-2.234L139.064,8.084H80.705
	l-9.731,179.658L131.94,139.207z"/>
<polygon style="fill:#E35F46;" points="76.48,86.104 143.291,86.104 140.78,39.755 78.989,39.755 "/>
<g>
	<circle style="fill:#FFB92E;" cx="159.259" cy="244.014" r="21.019"/>
	<circle style="fill:#FFB92E;" cx="353.269" cy="244.014" r="21.019"/>
	<circle style="fill:#FFB92E;" cx="256.269" cy="244.014" r="21.019"/>
</g>
<g>
	<rect x="138.24" y="403.952" style="fill:#CCC3A8;" width="236.048" height="34.816"/>
	<rect x="138.24" y="334.341" style="fill:#CCC3A8;" width="236.048" height="34.816"/>
</g>
<g>
	<rect x="138.24" y="438.768" style="fill:#DFDBCC;" width="236.048" height="34.805"/>
	<rect x="138.24" y="369.147" style="fill:#DFDBCC;" width="236.048" height="34.805"/>
	<rect x="138.24" y="299.525" style="fill:#DFDBCC;" width="236.048" height="34.805"/>
</g>
<path style="fill:#CCC3A8;" d="M30.998,256.413c-4.756,0-9.467-2.089-12.66-6.099c-5.561-6.986-4.408-17.158,2.579-22.72
	l111.023-88.387c1.713-1.364,3.683-2.364,5.795-2.944l113.99-31.259c2.8-0.769,5.754-0.769,8.552,0l113.991,31.259
	c2.099,0.576,4.06,1.568,5.766,2.92l111.556,88.387c7,5.546,8.179,15.715,2.632,22.713c-5.546,6.999-15.715,8.176-22.712,2.631
	l-108.973-86.339L256,137.363l-106.513,29.21l-108.429,86.32C38.082,255.262,34.527,256.413,30.998,256.413z"/>
<polygon style="fill:#EF9A1D;" points="109.906,10.24 88.349,10.24 78.617,189.898 101.146,171.962 "/>
<polygon style="fill:#D8422E;" points="86.633,41.911 84.123,88.26 105.681,88.26 108.19,41.911 "/>
<g>
	<path style="fill:#EF9A1D;" d="M166.907,244.016c0-7.776,4.234-14.548,10.509-18.184c-3.095-1.791-6.676-2.835-10.509-2.835
		c-11.609,0-21.019,9.41-21.019,21.019s9.41,21.019,21.019,21.019c3.833,0,7.415-1.043,10.509-2.835
		C171.139,258.564,166.907,251.792,166.907,244.016z"/>
	<path style="fill:#EF9A1D;" d="M360.915,244.016c0-7.776,4.233-14.548,10.509-18.184c-3.095-1.791-6.675-2.835-10.509-2.835
		c-11.609,0-21.019,9.41-21.019,21.019s9.41,21.019,21.019,21.019c3.834,0,7.415-1.043,10.509-2.835
		C365.148,258.564,360.915,251.792,360.915,244.016z"/>
	<path style="fill:#EF9A1D;" d="M263.911,244.016c0-7.776,4.234-14.548,10.509-18.184c-3.095-1.791-6.675-2.835-10.509-2.835
		c-11.609,0-21.019,9.41-21.019,21.019s9.41,21.019,21.019,21.019c3.834,0,7.415-1.043,10.509-2.835
		C268.145,258.564,263.911,251.792,263.911,244.016z"/>
</g>
<g>
	<rect x="145.882" y="403.952" style="fill:#C9B585;" width="21.286" height="34.816"/>
	<rect x="145.882" y="334.341" style="fill:#C9B585;" width="21.286" height="34.816"/>
</g>
<g>
	<rect x="145.882" y="438.768" style="fill:#D8CFB2;" width="21.286" height="34.805"/>
	<rect x="145.882" y="369.147" style="fill:#D8CFB2;" width="21.286" height="34.805"/>
	<rect x="145.882" y="299.525" style="fill:#D8CFB2;" width="21.286" height="34.805"/>
</g>
<path style="fill:#C9B585;" d="M54.398,238.529c-5.031,0-10.014-2.209-13.391-6.45c-4.677-5.876-4.848-13.876-1.012-19.867
	l-13.231,10.534c-6.985,5.562-8.139,15.734-2.579,22.72c3.194,4.011,7.905,6.099,12.661,6.099c3.528,0,7.084-1.15,10.059-3.52
	l13.186-10.497C58.243,238.201,56.318,238.529,54.398,238.529z"/>
<path style="fill:#CCC3A8;" d="M376.603,503.916h32.603h81.2c7.461,0,13.509-6.048,13.509-13.509v-3.32
	c0-7.461-6.048-13.509-13.509-13.509h-81.2H102.793h-81.2c-7.461,0-13.509,6.048-13.509,13.509v3.32
	c0,7.461,6.048,13.509,13.509,13.509h81.2h243.629"/>
<path style="fill:#C9B585;" d="M37.014,490.407v-3.32c0-7.461,6.048-13.509,13.509-13.509H29.237
	c-7.461,0-13.509,6.048-13.509,13.509v3.32c0,7.461,6.048,13.509,13.509,13.509h21.286
	C43.062,503.916,37.014,497.868,37.014,490.407z"/>
<g>
	<path style="fill:#231F20;" d="M490.407,465.493h-29.334V322.29c0-4.466-3.618-8.084-8.084-8.084s-8.084,3.618-8.084,8.084v143.203
		h-62.53v-26.725v-34.811v-34.81v-34.811v-26.725h6.924c4.466,0,8.084-3.618,8.084-8.084s-3.618-8.084-8.084-8.084H374.29H138.244
		h-14.107c-4.466,0-8.084,3.618-8.084,8.084s3.618,8.084,8.084,8.084h6.023v26.725v34.811v34.81v34.811v26.725H67.097V242.496
		l86.127-68.566L256,145.746l102.806,28.191l86.098,68.216v51.034c0,4.466,3.618,8.084,8.084,8.084s8.084-3.618,8.084-8.084v-38.225
		l5.414,4.29c4.268,3.381,9.614,5.244,15.051,5.243c7.459-0.001,14.392-3.35,19.018-9.19c4.024-5.078,5.829-11.418,5.083-17.853
		c-0.746-6.435-3.954-12.194-9.032-16.218l-111.555-88.386c-2.571-2.038-5.48-3.512-8.648-4.381L262.418,97.209
		c-4.179-1.147-8.653-1.146-12.83-0.001l-96.17,26.373l-2.053-37.902c0-0.004,0-0.008,0-0.012l-2.512-46.349v-0.001l-1.256-23.148
		h5.479c4.466,0,8.084-3.618,8.084-8.084S157.542,0,153.076,0h-14.013H80.705H66.693c-4.466,0-8.084,3.618-8.084,8.084
		s3.618,8.084,8.084,8.084h5.479l-1.254,23.143c0,0.002,0,0.004,0,0.005l-0.601,11.116L63.099,183.68l-47.216,37.589
		c-10.461,8.329-12.196,23.616-3.869,34.079c4.628,5.814,11.549,9.148,18.985,9.148c5.458,0,10.82-1.874,15.095-5.28l4.835-3.85
		v210.126H21.593C9.687,465.493,0,475.18,0,487.087v3.32C0,502.313,9.687,512,21.593,512h324.828c4.466,0,8.084-3.618,8.084-8.084
		s-3.618-8.084-8.084-8.084H21.593c-2.991,0-5.425-2.434-5.425-5.425v-3.32c0-2.991,2.434-5.425,5.425-5.425h37.419h79.232H374.29
		h78.698h37.418c2.991,0,5.425,2.434,5.425,5.425v3.32c0,2.991-2.434,5.425-5.425,5.425H376.603c-4.466,0-8.084,3.618-8.084,8.084
		s3.618,8.084,8.084,8.084h113.803c11.906,0,21.593-9.687,21.593-21.593v-3.32C512,475.18,502.313,465.493,490.407,465.493z
		 M85.943,60.865l0.706-13.026h46.473l1.635,30.181H85.014L85.943,60.865z M131.405,16.168l0.84,15.502H87.523l0.841-15.502H131.405
		z M80.02,170.207l4.118-76.019h51.494l1.829,33.766l-1.864,0.511c-3.184,0.874-6.108,2.358-8.691,4.416L80.02,170.207z
		 M36.022,246.568c-1.827,1.455-3.741,1.76-5.024,1.76c-2.483,0-4.792-1.111-6.335-3.049c-2.777-3.488-2.198-8.584,1.288-11.361
		l111.023-88.386c0.861-0.686,1.836-1.181,2.897-1.471l8.152-2.234c0.005-0.001,0.01-0.003,0.014-0.004l105.826-29.02
		c0.696-0.191,1.415-0.289,2.136-0.289c0.721,0,1.439,0.097,2.136,0.29l113.99,31.258c1.056,0.291,2.026,0.781,2.884,1.461
		l111.556,88.387c1.692,1.341,2.763,3.261,3.011,5.406c0.248,2.145-0.352,4.258-1.694,5.951c-1.542,1.947-3.856,3.063-6.347,3.063
		c-1.279,0-3.185-0.303-5.009-1.748l-108.973-86.339c-0.853-0.676-1.832-1.172-2.882-1.459l-106.535-29.215
		c-1.05-0.288-2.143-0.36-3.214-0.216c-0.357,0.047-0.711,0.12-1.062,0.216l-106.512,29.209c-1.055,0.29-2.042,0.79-2.897,1.472
		L36.022,246.568z M146.329,377.232h219.878v18.641H146.329V377.232z M366.206,361.063H146.329v-18.642h219.878V361.063z
		 M146.329,412.041h219.878v18.642H146.329V412.041z M366.206,307.612v18.641H146.329v-18.641H366.206z M146.329,465.493v-18.641
		h219.878v18.641H146.329z"/>
	<path style="fill:#231F20;" d="M130.16,244.016c0,16.048,13.055,29.103,29.103,29.103s29.103-13.055,29.103-29.103
		s-13.055-29.103-29.103-29.103S130.16,227.968,130.16,244.016z M172.198,244.016c0,7.132-5.802,12.935-12.935,12.935
		s-12.935-5.802-12.935-12.935s5.802-12.935,12.935-12.935S172.198,236.884,172.198,244.016z"/>
	<path style="fill:#231F20;" d="M324.168,244.016c0,16.048,13.055,29.103,29.103,29.103s29.103-13.055,29.103-29.103
		s-13.055-29.103-29.103-29.103S324.168,227.968,324.168,244.016z M366.206,244.016c0,7.132-5.802,12.935-12.935,12.935
		c-7.132,0-12.935-5.802-12.935-12.935s5.802-12.935,12.935-12.935C360.404,231.081,366.206,236.884,366.206,244.016z"/>
	<path style="fill:#231F20;" d="M227.164,244.016c0,16.048,13.055,29.103,29.103,29.103s29.103-13.055,29.103-29.103
		s-13.055-29.103-29.103-29.103S227.164,227.968,227.164,244.016z M269.202,244.016c0,7.132-5.802,12.935-12.935,12.935
		c-7.132,0-12.935-5.802-12.935-12.935s5.802-12.935,12.935-12.935C263.4,231.081,269.202,236.884,269.202,244.016z"/>
</g>
</svg>